<?xml version="1.0" encoding="UTF-8" standalone="no"?>
<!-- Created with Inkscape (http://www.inkscape.org/) -->

<svg
   xmlns:dc="http://purl.org/dc/elements/1.1/"
   xmlns:cc="http://creativecommons.org/ns#"
   xmlns:rdf="http://www.w3.org/1999/02/22-rdf-syntax-ns#"
   xmlns:svg="http://www.w3.org/2000/svg"
   xmlns="http://www.w3.org/2000/svg"
   xmlns:sodipodi="http://sodipodi.sourceforge.net/DTD/sodipodi-0.dtd"
   xmlns:inkscape="http://www.inkscape.org/namespaces/inkscape"
   width="100%"
   height="100%"
   id="svg2"
   version="1.1"
   inkscape:version="0.48.5 r10040"
   sodipodi:docname="viisari2.svg"
   viewBox="0 0 186 186">
  <defs
     id="defs4" />
  <sodipodi:namedview
     inkscape:zoom="0.74"
     inkscape:cx="-125.57214"
     inkscape:cy="96.968989"
     inkscape:window-width="1489"
     inkscape:window-height="991"
     inkscape:window-x="2169"
     inkscape:window-y="39"
     inkscape:window-maximized="0"
     inkscape:current-layer="layer1"
     id="namedview3019"
     showgrid="false"
     fit-margin-top="0"
     fit-margin-left="0"
     fit-margin-right="0"
     fit-margin-bottom="0" />
  <metadata
     id="metadata7">
    <rdf:RDF>
      <cc:Work
         rdf:about="">
        <dc:format>image/svg+xml</dc:format>
        <dc:type
           rdf:resource="http://purl.org/dc/dcmitype/StillImage" />
      </cc:Work>
    </rdf:RDF>
  </metadata>
  <g
     inkscape:label="Layer 1"
     inkscape:groupmode="layer"
     id="layer1"
     transform="translate(-233.69586,-867.15691)">
    <g
       id="valomittari">
      <path
         inkscape:connector-curvature="0"
         id="path3028"
         style="fill:#000000;fill-opacity:1;fill-rule:nonzero;stroke:none"
         d="m 324.66022,867.15841 c -3.51181,0.022 -7.01629,0.2737 -10.52083,0.4529 -0.0121,0 -0.01,0.014 0,0.014 2.72711,0.3439 5.46142,0.6297 8.18612,0.9954 -0.063,-0.01 -0.12599,-0.017 -0.18892,-0.024 3.27923,0.4578 6.52462,1.0269 9.72882,1.8649 1.65171,0.4311 3.29384,0.9009 4.93588,1.3708 1.25212,0.3609 2.50424,0.7193 3.7588,1.0777 3.10595,0.8858 6.15432,1.8865 9.14118,3.1137 4.02288,1.729 7.98013,3.6725 11.74781,5.9128 1.87947,1.1165 3.76123,2.2282 5.64551,3.3398 1.81887,1.0729 3.56749,2.2452 5.33552,3.4028 0.70477,0.4626 1.36352,1.0051 2.04162,1.5089 0.79167,0.5898 1.58544,1.1796 2.37925,1.7676 1.25217,0.9805 2.5098,1.9547 3.76931,2.9276 1.07446,0.9291 2.18403,1.8229 3.22183,2.7909 1.19647,1.1189 2.3977,2.233 3.59417,3.352 3.47791,3.2563 6.84328,6.6877 9.82394,10.4092 1.0569,1.4355 1.9694,2.9256 2.78692,4.5219 0.42627,0.8307 0.84287,1.6638 1.25704,2.4994 0.73622,1.4798 1.46282,2.9596 2.18452,4.4442 1.26125,2.5921 2.47944,5.2037 3.69972,7.8127 0.33684,0.804 0.67333,1.6077 1.01092,2.4102 1.00218,2.3953 1.83384,4.8119 2.28476,7.366 0.2172,2.2826 0.10575,4.5775 -0.1616,6.8552 -0.56198,3.7745 -1.38485,7.5111 -2.15947,11.2476 -0.93126,4.4957 -1.95502,9.0514 -3.6472,13.3271 -1.5844,3.6088 -3.48788,7.0707 -5.37688,10.5264 -1.62269,2.9692 -3.25748,5.924 -4.95041,8.8545 -3.29622,5.706 -6.89035,11.22799 -10.70485,16.60229 -0.46699,0.656 -0.9321,1.3141 -1.39879,1.9724 -0.87238,1.116 -1.74342,2.2315 -2.65791,3.3146 -0.67571,0.8016 -1.35148,1.6056 -2.02957,2.4073 -1.52448,1.8087 -3.17326,3.4851 -5.00452,4.9745 -2.45589,1.8053 -5.04982,3.3722 -7.81928,4.6404 -0.79545,0.3154 -1.59015,0.636 -2.40276,0.8963 -1.10927,0.356 -2.21607,0.712 -3.32772,1.068 -2.25237,0.7194 -4.53386,1.3103 -6.82979,1.877 -2.17732,0.5377 -4.36675,1.0221 -6.54403,1.5742 -1.83811,0.4677 -3.68663,0.7752 -5.55272,1.0519 -5.8639,0.3691 -11.73213,0.5888 -17.60567,0.6895 -2.76097,0.046 -5.53161,-0.063 -8.29022,-0.1283 -2.67094,-0.064 -5.32068,-0.3189 -7.97507,-0.5762 -1.30394,-0.213 -2.60807,-0.4275 -3.91406,-0.6421 -0.6176,-0.1017 -1.23277,-0.2833 -1.84311,-0.4238 -0.89126,-0.2059 -1.78253,-0.4117 -2.67379,-0.6176 -0.6176,-0.1404 -1.22794,-0.3754 -1.83337,-0.5643 -0.88644,-0.2737 -1.77286,-0.5473 -2.65687,-0.821 -0.62727,-0.1938 -1.23761,-0.465 -1.85036,-0.6951 -0.69857,-0.2625 -1.39713,-0.5269 -2.0957,-0.7915 -3.40057,-1.5039 -6.77039,-3.0671 -10.14467,-4.6263 -1.39502,-0.6443 -2.78757,-1.2958 -4.16083,-1.9884 -1.81403,-0.9155 -3.5118,-2.0465 -5.21435,-3.151 -0.83559,-0.5425 -1.70503,-1.051 -2.50428,-1.6469 -0.66893,-0.5008 -1.33916,-1.0015 -2.00976,-1.5024 -0.84086,-0.7047 -1.73045,-1.3842 -2.50956,-2.1522 -0.96151,-0.9494 -1.93269,-1.8818 -2.83605,-2.8821 -1.77286,-1.9618 -3.5069,-3.9429 -5.19984,-5.9724 0.10937,0.1409 0.2188,0.2823 0.32817,0.424 -0.67618,-0.8669 -1.37239,-1.7256 -1.98961,-2.6304 -0.78227,-1.14559 -1.66145,-2.26689 -2.35412,-3.46819 -0.69268,-1.194 -1.39019,-2.3808 -2.03922,-3.599 -1.07472,-2.0232 -2.20004,-4.0341 -3.14983,-6.1221 -0.80124,-2.0725 -1.39447,-4.2211 -1.7511,-6.4144 -0.3477,-3.131 -0.35136,-6.2706 -0.37157,-9.4205 -0.0218,-3.2043 -0.0533,-6.4108 -0.017,-9.615 0.0387,-3.2163 0.0582,-6.4423 0.21799,-9.6562 0.0872,-1.7413 0.17919,-3.4755 0.32693,-5.2144 0.1307,-1.5009 0.31435,-2.9899 0.50153,-4.4849 0.1147,-0.8317 0.2304,-1.6626 0.34615,-2.495 0.13076,-0.9543 0.35117,-1.9012 0.53284,-2.8483 0.37294,-1.9496 0.85493,-3.8773 1.32719,-5.8052 0.47468,-1.9375 1.0366,-3.8484 1.59603,-5.7642 0.49291,-1.6902 1.13908,-3.321 1.80144,-4.9494 1.55239,-3.4639 3.29443,-6.8534 5.54228,-9.9247 2.15242,-2.6765 4.60822,-5.0662 7.04734,-7.485 1.16011,-1.1529 2.26447,-2.3662 3.38823,-3.5554 1.20853,-1.2764 2.45097,-2.5164 3.69583,-3.7588 0.57642,-0.5788 1.2425,-1.0874 1.85519,-1.6226 0.46985,-0.4118 0.93975,-0.8236 1.41443,-1.228 1.39019,-1.1843 2.76822,-2.3735 4.12208,-3.5966 1.33451,-1.2061 2.69078,-2.3831 4.04947,-3.5626 1.04044,-0.903 2.13383,-1.7471 3.21128,-2.6066 0.90943,-0.6663 1.81701,-1.3344 2.7224,-2.0047 1.10195,-0.8162 2.28387,-1.5428 3.41732,-2.313 2.27178,-1.5475 4.61374,-2.9063 7.0962,-4.0857 1.02358,-0.487 2.07958,-0.9126 3.12058,-1.3622 1.36873,-0.4891 2.73765,-0.9851 4.10645,-1.4835 0.62243,-0.2277 1.29086,-0.3706 1.9278,-0.5547 0.96876,-0.2785 1.93753,-0.5618 2.9063,-0.8453 1.24733,-0.3656 2.53577,-0.6005 3.80488,-0.8887 2.12638,-0.482 4.25041,-0.9495 6.38653,-1.3806 0.01,0 0.007,-0.014 0,-0.014 -2.39522,-0.032 -4.776,0 -7.16886,0.06 -1.51612,0.036 -2.99831,0.09 -4.50475,0.2373 -1.74378,0.172 -3.48756,0.3076 -5.21193,0.6249 -1.03176,0.1889 -2.06352,0.3802 -3.09522,0.5764 -0.75325,0.1429 -1.49193,0.3875 -2.23061,0.5885 -1.08502,0.2979 -2.15546,0.6079 -3.22114,0.9663 -2.22088,0.7412 -4.33282,1.7511 -6.42777,2.7877 -1.41679,0.7023 -2.84572,1.4168 -4.21167,2.2136 -1.53068,0.8937 -3.03954,1.7947 -4.52657,2.7537 -1.50644,0.9713 -2.96688,1.9933 -4.42973,3.0299 -1.26178,0.8936 -2.48488,1.843 -3.71764,2.7779 -1.27146,0.9615 -2.59382,1.8576 -3.87258,2.8119 -0.78233,0.5836 -1.5646,1.1697 -2.34687,1.7583 -0.93727,0.7047 -1.81402,1.4797 -2.70287,2.2427 -1.15768,0.993 -2.2693,2.0368 -3.40039,3.0612 -1.34412,1.2207 -2.6883,2.4317 -4.05908,3.6208 -1.1335,0.9809 -2.2742,1.9569 -3.33498,3.0177 -2.30085,2.3033 -4.46605,4.7494 -6.12743,7.5685 -0.91309,1.5452 -1.78253,3.0977 -2.62296,4.6816 -0.81376,1.533 -1.44344,3.1896 -2.11919,4.7856 -0.7411,1.7487 -1.3732,3.5312 -1.91571,5.3501 -0.9785,3.2938 -1.81161,6.6094 -2.57453,9.9589 -0.83069,3.6402 -1.1867,7.3965 -1.61296,11.102 -0.38025,3.3036 -0.43841,6.6482 -0.48441,9.9711 -0.046,3.3713 -0.0194,6.745 -0.0315,10.1163 -0.01,3.2381 -0.092,6.4762 -0.0678,9.7143 0.007,0.9058 0.0145,1.814 0.0193,2.7198 0.007,0.8913 0.12834,1.7898 0.19617,2.6787 0.36332,4.7203 1.70745,9.2275 3.80482,13.4586 1.67111,3.3712 3.44639,6.74499 5.56316,9.85949 2.0417,3.0081 4.23591,5.9338 6.63604,8.6657 2.23303,2.543 4.41999,5.1078 6.99694,7.3142 0.85493,0.7314 1.69288,1.4725 2.59871,2.1409 0.86219,0.6345 1.72195,1.2667 2.58172,1.9012 1.56943,1.1553 3.29623,2.1337 4.95525,3.1558 2.69804,1.6663 5.61401,2.9039 8.51063,4.1802 1.59604,0.7024 3.18965,1.4144 4.78568,2.1264 1.87702,0.8356 3.78547,1.6131 5.68184,2.4099 1.49434,0.6297 3.05404,1.1213 4.57982,1.6711 0.6951,0.2494 1.42652,0.4215 2.13371,0.6297 0.80167,0.2373 1.60818,0.5353 2.42436,0.712 1.56696,0.3415 3.13881,0.7702 4.72274,1.0123 1.99321,0.3052 3.99616,0.7 6.00636,0.872 1.67837,0.1453 3.35673,0.3172 5.04242,0.3827 3.5844,0.1404 7.16403,0.1889 10.75085,0.2179 3.44639,0.029 6.89278,-0.1187 10.33432,-0.2567 3.2308,-0.1308 6.47137,-0.1332 9.68283,-0.5304 1.04385,-0.1308 2.10704,-0.2228 3.13879,-0.4239 0.98085,-0.1889 1.96171,-0.3778 2.94505,-0.5666 1.65661,-0.3198 3.29865,-0.7339 4.95527,-1.0657 3.29622,-0.6588 6.53669,-1.475 9.75301,-2.451 1.55732,-0.4722 3.08552,-0.976 4.61129,-1.5427 3.98652,-1.4798 7.6848,-3.5724 11.07061,-6.1421 1.97629,-1.4991 3.79763,-3.1169 5.47112,-4.9479 0.75805,-0.8332 1.48951,-1.6905 2.22573,-2.5406 1.16736,-1.349 2.28387,-2.7295 3.40034,-4.1197 2.13378,-2.6569 4.11245,-5.4783 5.98459,-8.3241 0.94693,-1.4386 1.96662,-2.8481 2.84332,-4.328 1.04628,-1.7607 2.09251,-3.5239 3.13879,-5.28699 1.65904,-2.7949 3.16061,-5.6963 4.6404,-8.5905 1.51372,-2.962 3.09524,-5.8853 4.56293,-8.8691 1.504,-3.054 2.93776,-6.1299 4.00824,-9.3655 0.86707,-2.6109 1.4604,-5.2725 2.07317,-7.9487 0.76043,-3.3181 1.38287,-6.6651 2.02957,-10.0074 0.64664,-3.3277 1.16249,-6.6966 1.2424,-10.0897 0.0606,-2.5503 -0.26641,-5.1103 -0.87184,-7.5831 -0.51203,-2.0943 -1.34175,-4.08 -2.17961,-6.0599 -0.69128,-1.6517 -1.36898,-3.313 -2.11448,-4.9403 -0.76048,-1.6663 -1.52091,-3.3302 -2.27901,-4.9965 -1.53063,-3.3689 -3.09524,-6.7305 -4.77601,-10.0243 -1.0996,-2.1555 -2.59145,-4.0543 -4.10517,-5.9313 -1.52582,-1.8891 -3.20902,-3.6256 -4.90438,-5.3596 -1.07529,-1.0996 -2.17728,-2.1895 -3.31075,-3.2309 -1.31993,-1.2134 -2.63986,-2.4243 -3.97194,-3.628 -1.34413,-1.2134 -2.72948,-2.3662 -4.12694,-3.5191 -1.57428,-1.2981 -3.28169,-2.4485 -4.93587,-3.6401 -1.34657,-0.9688 -2.74402,-1.8624 -4.12694,-2.7731 -2.85547,-1.8842 -5.91917,-3.3858 -8.99982,-4.8584 -1.49676,-0.7168 -3.0008,-1.4192 -4.5048,-2.124 -3.79759,-1.7753 -7.78639,-3.2017 -11.80197,-4.3885 -2.25481,-0.666 -4.54106,-1.2109 -6.85885,-1.6032 -1.72929,-0.2931 -3.47305,-0.5257 -5.21201,-0.7509 -1.83578,-0.2398 -3.67155,-0.4722 -5.50986,-0.7072 -3.37499,-0.4309 -6.74619,-0.6647 -10.14677,-0.6647 -0.13528,0 -0.27007,4e-4 -0.40548,0 m 56.52597,28.1622 c 0.10868,0.084 0.2174,0.1678 0.32608,0.2517 -0.10903,-0.084 -0.21755,-0.1678 -0.32608,-0.2517" />
      <path
         transform="translate(118.31243,586.5206)"
         d="m 281.83367,366.76691 a 75.508339,77.913063 0 1 1 -151.01668,0 75.508339,77.913063 0 1 1 151.01668,0 z"
         sodipodi:ry="77.913063"
         sodipodi:rx="75.508339"
         sodipodi:cy="366.76691"
         sodipodi:cx="206.32533"
         id="valo"
         style="fill:#b43831;fill-opacity:1;fill-rule:evenodd;stroke:none"
         sodipodi:type="arc" />
      <path
         inkscape:connector-curvature="0"
         id="path3034"
         style="opacity:0.51327431;fill:#ffffff;fill-opacity:1;fill-rule:nonzero;stroke:none"
         d="m 299.25833,953.55221 c 0,10.1406 8.45973,18.6003 18.60031,18.6003 10.14058,0 18.6003,-8.4597 18.6003,-18.6003 0,-10.1405 -8.45972,-18.6002 -18.6003,-18.6002 -10.14058,0 -18.60031,8.4597 -18.60031,18.6002" />
    </g>
  </g>
</svg>
