<?xml version="1.0" encoding="UTF-8" standalone="no"?>
<!-- Created with Inkscape (http://www.inkscape.org/) -->

<svg
   xmlns:dc="http://purl.org/dc/elements/1.1/"
   xmlns:cc="http://creativecommons.org/ns#"
   xmlns:rdf="http://www.w3.org/1999/02/22-rdf-syntax-ns#"
   xmlns:svg="http://www.w3.org/2000/svg"
   xmlns="http://www.w3.org/2000/svg"
   xmlns:sodipodi="http://sodipodi.sourceforge.net/DTD/sodipodi-0.dtd"
   xmlns:inkscape="http://www.inkscape.org/namespaces/inkscape"
   width="100%"
   height="100%"
   id="svg2"
   version="1.1"
   inkscape:version="0.48.5 r10040"
   sodipodi:docname="viisari3.svg"
   viewBox="0 0 200 200">
  <defs
     id="defs4" />
  <sodipodi:namedview
     inkscape:zoom="0.74"
     inkscape:cx="92.748107"
     inkscape:cy="103.51129"
     inkscape:window-width="1489"
     inkscape:window-height="991"
     inkscape:window-x="102"
     inkscape:window-y="145"
     inkscape:window-maximized="0"
     inkscape:current-layer="layer1"
     id="namedview4"
     showgrid="false"
     fit-margin-top="0"
     fit-margin-left="0"
     fit-margin-right="0"
     fit-margin-bottom="0" />
  <metadata
     id="metadata7">
    <rdf:RDF>
      <cc:Work
         rdf:about="">
        <dc:format>image/svg+xml</dc:format>
        <dc:type
           rdf:resource="http://purl.org/dc/dcmitype/StillImage" />
        <dc:title></dc:title>
      </cc:Work>
    </rdf:RDF>
  </metadata>
  <g
     inkscape:label="Layer 1"
     inkscape:groupmode="layer"
     id="layer1"
     transform="translate(-15.375613,-857.73016)">
    <path
       d="m 106.98721,857.73116 c -5.02723,1.74516 -10.027672,3.55267 -15.022175,5.38988 -2.143483,0.78786 -4.239396,1.73329 -6.347195,2.60432 -1.97402,0.81757 -3.88858,1.78083 -5.815031,2.69941 -0.752148,0.35977 -1.468623,0.78786 -2.196989,1.18922 -0.84431,0.46674 -1.715379,0.9008 -2.526982,1.41808 -1.798622,1.15049 -3.597238,2.27431 -5.312605,3.54365 -3.665615,2.7024 -7.152845,5.60694 -10.628196,8.54722 -1.441864,1.21892 -2.883728,2.43773 -4.322621,3.65964 -0.793769,0.67485 -1.516187,1.45674 -2.268334,2.18213 -0.642153,0.61835 -1.317007,1.21886 -1.917538,1.87886 -1.397271,1.54006 -2.79752,3.0681 -4.126417,4.6675 -1.394294,1.67678 -2.764812,3.36538 -4.108578,5.0807 -2.845083,3.63894 -5.538544,7.37882 -8.15174,11.18416 -0.725395,1.05241 -1.447818,2.10481 -2.194018,3.14239 -1.682672,2.3456 -3.195893,4.7775 -4.533704,7.3342 -2.265361,4.3315 -3.995603,8.9633 -5.425576,13.6308 -1.281327,4.1829 -2.390227,8.4074 -3.493185,12.6409 -1.037548,3.9777 -1.605377,8.0536 -2.188069,12.1146 -0.324044,2.2505 -0.588634,4.5129 -0.761068,6.7813 -0.127835,1.6915 -0.252698,3.3802 -0.270532,5.0777 -0.01784,1.7986 0.19621,3.5765 0.392425,5.3602 0.258641,2.3427 0.707555,4.6348 1.209976,6.9358 0.764045,3.4872 2.565632,6.698 4.304793,9.7869 2.217794,3.9421 4.70316,7.74738 7.476891,11.32678 1.34673,1.7422 2.705358,3.4605 4.120462,5.1521 1.174309,1.4032 2.47347,2.7171 3.769672,4.0045 3.094805,3.074 6.189616,6.136 9.34686,9.1447 1.575647,1.5013 3.296969,2.9045 5.02721,4.2275 1.810501,1.3854 3.623991,2.7469 5.485033,4.0639 1.516193,1.0703 3.097782,2.0692 4.712074,2.9819 2.366451,1.3348 4.718028,2.6905 7.123121,3.948 3.793441,1.983 7.786081,3.404 11.829249,4.7716 1.953204,0.66 4.034255,1.0435 6.043942,1.4834 4.459388,0.9812 8.981207,1.6025 13.532775,1.8879 4.17689,0.2586 8.36276,0.3359 12.54566,0.3032 2.35163,-0.015 4.70318,-0.3359 7.02504,-0.6749 2.21182,-0.321 4.41183,-0.6896 6.61474,-1.0643 4.19478,-0.7134 8.36878,-1.4983 12.51895,-2.4199 1.69757,-0.3776 3.37724,-0.9127 5.03317,-1.4359 1.98,-0.6273 3.97483,-1.213 5.92803,-1.9206 2.09888,-0.764 4.18884,-1.5192 6.25499,-2.3574 1.18917,-0.4817 2.42294,-0.9276 3.57641,-1.4835 1.08513,-0.5232 2.17026,-1.0465 3.25539,-1.5697 3.68639,-1.7779 7.14688,-4.0372 10.61035,-6.2075 0.65406,-0.4073 1.30508,-0.8117 1.9443,-1.2397 0.94836,-0.6362 1.95617,-1.2249 2.85993,-1.9205 2.05131,-1.5757 4.09668,-3.1423 6.06176,-4.8281 1.45082,-1.2427 2.86892,-2.5299 4.32263,-3.7726 1.52214,-1.2992 3.03537,-2.6191 4.37021,-4.1175 1.48941,-1.6738 2.92835,-3.3654 4.34637,-5.1045 1.8819,-2.3041 3.80534,-4.5367 5.55641,-6.9477 1.62024,-2.23268 3.01459,-4.59908 4.33154,-7.01618 0.68382,-1.2574 1.29625,-2.5477 1.87596,-3.8558 0.61837,-1.3972 1.2575,-2.8243 1.74208,-4.278 0.72248,-2.1672 1.40622,-4.3227 2.02756,-6.5226 0.5173,-1.8283 0.79676,-3.734 1.16839,-5.598 0.2854,-1.433 0.3835,-2.9491 0.56182,-4.3999 0.11302,-0.9038 0.23783,-1.8076 0.33,-2.7143 0.21409,-2.0662 0.45489,-4.1294 0.59166,-6.2015 0.14566,-2.2535 0.26454,-4.498 0.35671,-6.7515 0.3389,-8.4728 0.0981,-17.0735 -2.13457,-25.3025 -0.77591,-2.866 -1.78371,-5.6575 -2.74396,-8.464 -0.55892,-1.6351 -1.17432,-3.2672 -1.82839,-4.8636 -1.0078,-2.45862 -2.03349,-4.89642 -3.13346,-7.31344 -0.91267,-2.00076 -1.90564,-3.93911 -2.91938,-5.89231 -2.28617,-4.40287 -5.34232,-8.54411 -9.02284,-11.88278 -2.06021,-1.86997 -4.30178,-3.5526 -6.49282,-5.2591 -2.30108,-1.79265 -4.66154,-3.40995 -7.23311,-4.78638 -1.17729,-0.63029 -2.40809,-1.16535 -3.61804,-1.73323 -1.12972,-0.52617 -2.28914,-0.99 -3.43675,-1.46862 -0.86807,-0.35977 -1.73021,-0.74621 -2.61914,-1.05538 -1.95024,-0.68083 -3.89149,-1.41809 -5.87445,-1.99778 -2.05724,-0.60057 -4.11456,-1.20114 -6.17774,-1.78083 -4.05207,-1.13564 -8.16663,-2.0424 -12.21871,-3.175 -2.11074,-0.5887 -4.23641,-1.10306 -6.36207,-1.62624 -1.88478,-0.46377 -3.84993,-0.67187 -5.76745,-0.98105 -1.84322,-0.29737 -3.70129,-0.50541 -5.54445,-0.81459 -2.2832,-0.37755 -4.5664,-0.75808 -6.84664,-1.13861 -1.86408,-0.30924 -3.76378,-0.43406 -5.64263,-0.62432 -1.46566,-0.1457 -2.8986,-0.23186 -4.3702,-0.27947 -2.34265,-0.0773 -4.67341,-0.17541 -7.01606,-0.11598 -2.48397,0.0641 -4.947164,0.30253 -7.404042,0.60836 3.273202,-1.93908 6.568922,-3.8426 9.841822,-5.77821 0.008,-0.006 0.004,-0.0189 -0.005,-0.0189 -10e-4,0 -0.003,3.7e-4 -0.004,0 m -16.779193,6.75152 c -0.003,3.7e-4 -0.0061,6.1e-4 -0.009,0 0.003,-6.1e-4 0.0064,0 0.009,0 m -5.752369,6.95038 c 2.220771,-1.48944 4.480192,-2.89267 6.748533,-4.30479 1.228747,-0.76417 2.464873,-1.51702 3.705717,-2.26256 2.737104,0.1412 5.470942,0.32117 8.197692,0.67309 2.88908,0.41335 5.72772,1.02415 8.58598,1.60731 1.93235,0.39241 3.82018,0.91566 5.72582,1.4151 3.76371,0.99 7.41447,2.33082 11.14842,3.41001 2.1227,0.61233 4.24242,1.23068 6.3591,1.86103 0.77888,0.23191 1.58752,0.42217 2.34858,0.70754 1.24275,0.46371 2.48245,0.92753 3.72809,1.38837 1.67968,0.62134 3.32967,1.33778 5.02122,1.92642 2.15839,0.75212 4.30482,1.52213 6.4483,2.31291 3.21703,1.18453 6.38558,2.53345 9.57545,3.78671 2.20747,0.94488 4.41289,1.87984 6.57638,2.92317 3.65937,1.76336 7.17405,3.70883 10.435,6.13623 1.08635,0.85812 2.15283,1.74315 3.23157,2.61016 1.03756,0.83236 2.06614,1.67672 3.07395,2.54477 1.37898,1.18793 2.60171,2.52985 3.74864,3.93886 3.04693,4.16852 5.17594,8.91167 7.30876,13.5946 0.93048,2.2716 1.85708,4.5497 2.63292,6.8772 0.56189,1.6916 1.12378,3.3802 1.68865,5.0718 1.04944,3.1539 1.82786,6.3719 2.32133,9.6547 0.36128,2.9727 0.59911,5.9434 0.60992,8.9439 0.006,1.7006 -0.0267,3.4039 -0.0505,5.1045 -0.0297,2.0513 -0.0892,4.1026 -0.22893,6.148 -0.30413,4.4156 -0.77705,8.8043 -1.29846,13.197 -0.3902,2.0909 -0.74692,4.1798 -1.28796,6.237 -0.69911,2.6671 -1.5079,5.2957 -2.52057,7.8581 -1.78714,4.0065 -4.03876,7.7582 -6.65996,11.2756 -1.50318,1.8782 -3.12189,3.6765 -4.67326,5.51181 -1.58759,1.8789 -3.31779,3.6091 -5.07479,5.3275 -0.83535,0.8175 -1.7927,1.525 -2.68749,2.2742 -0.89189,0.7492 -1.75403,1.537 -2.63108,2.307 -0.93345,0.8176 -1.86995,1.6292 -2.80347,2.4468 -0.78291,0.6817 -1.63036,1.3049 -2.46153,1.9377 0.20641,-0.1591 0.41235,-0.3182 0.61838,-0.4781 -2.90158,1.9741 -5.83587,3.8856 -8.82367,5.7319 -1.64695,1.0166 -3.2821,2.0215 -4.97967,2.955 -1.5235,0.8354 -3.07943,1.598 -4.63946,2.3674 -2.58961,1.0462 -5.18698,2.0365 -7.81107,3.0017 -2.91946,1.0702 -5.94287,1.9027 -8.93364,2.7589 -2.96101,0.8503 -6.05285,1.2635 -9.09118,1.7361 -2.81032,0.4339 -5.62604,0.8524 -8.4394,1.2698 -0.86937,0.1088 -1.73866,0.2177 -2.60796,0.3267 -1.12675,0.1398 -2.27726,0.1605 -3.41292,0.2378 -2.25056,0.1516 -4.5397,0.057 -6.79314,0.03 -1.98296,-0.024 -3.97186,-0.071 -5.95474,-0.1636 -1.189174,-0.053 -2.396228,-0.047 -3.576418,-0.1634 -1.030407,-0.1031 -2.060661,-0.204 -3.091073,-0.3045 -2.470176,-0.3899 -4.922531,-0.8176 -7.37958,-1.289 -3.062877,-0.589 -6.087426,-1.6542 -8.984257,-2.8114 -3.607247,-1.6238 -7.022991,-3.6625 -10.467562,-5.596 -2.245972,-1.2604 -4.325896,-2.7257 -6.409474,-4.2262 -0.813648,-0.6555 -1.627278,-1.311 -2.440902,-1.9665 -1.019715,-0.8234 -1.956181,-1.7718 -2.925355,-2.6578 -1.762943,-1.6083 -3.415885,-3.3445 -5.092614,-5.042 -1.712402,-1.7332 -3.463454,-3.4427 -5.11639,-5.2324 -0.948369,-1.0286 -1.896726,-2.0543 -2.848061,-3.0799 -0.679152,-0.7355 -1.28207,-1.5658 -1.894078,-2.3718 0.15471,0.2002 0.309389,0.4004 0.464099,0.5999 -2.072119,-2.78851 -4.04614,-5.63361 -6.005292,-8.50551 -0.945392,-1.3853 -1.774834,-2.8599 -2.613202,-4.3137 -0.989077,-1.7095 -2.002685,-3.4124 -2.84624,-5.2 -1.015837,-2.776 -1.604751,-5.662 -2.067468,-8.5758 -0.477565,-5.136 0.04134,-10.2853 0.660649,-15.3885 0.271531,-1.8794 0.55449,-3.7442 0.944199,-5.6069 0.466748,-2.2446 1.028629,-4.4565 1.587538,-6.6802 1.319186,-5.2314 2.840487,-10.4465 4.869439,-15.4505 1.218591,-2.7767 2.596848,-5.4633 4.144451,-8.0742 1.108906,-1.873 2.405096,-3.627 3.579405,-5.4583 1.367535,-2.1346 2.72022,-4.27511 4.1056,-6.39776 2.613031,-4.00723 5.348187,-7.91973 8.109845,-11.82291 0.753865,-0.97496 1.506025,-1.95034 2.255409,-2.92755 1.629945,-1.87558 3.223316,-3.76771 4.948254,-5.5546 1.911589,-1.98297 3.814258,-3.97472 5.708004,-5.97255 1.626189,-1.7124 3.273194,-3.39808 4.985596,-5.02426 0.790792,-0.75218 1.560779,-1.537 2.399141,-2.24156 1.086768,-0.9142 2.170839,-1.83113 3.252212,-2.75068 1.905738,-1.41212 3.802136,-2.8053 5.770603,-4.1287 m -29.326909,28.60982 c -0.247073,0.32063 -0.494176,0.64119 -0.744178,0.96187 0.248194,-0.32068 0.496271,-0.64124 0.744178,-0.96187 m 137.083351,95.28675 c -0.0535,0.069 -0.10723,0.1382 -0.1612,0.2073 0.0538,-0.069 0.10739,-0.1384 0.1612,-0.2073"
       style="fill:#000000;fill-opacity:1;fill-rule:nonzero;stroke:none"
       id="path3030"
       inkscape:connector-curvature="0" />
    <path
       style="fill:none;stroke:#d8d9da;stroke-width:10;stroke-linecap:round;stroke-linejoin:miter;stroke-miterlimit:4;stroke-opacity:1;stroke-dasharray:none;marker-start:none"
       d="m 55.019481,925.57864 c 10.561651,-18.66366 31.674175,-29.68349 40.933419,-31.86088 10.14443,-2.38556 13.97764,-1.54191 21.1248,-1.54988 14.29429,-0.0159 24.56536,2.72318 30.5324,4.53338 10.02075,3.03996 23.4419,15.02867 29.80285,29.50708"
       id="path4579"
       inkscape:connector-curvature="0"
       sodipodi:nodetypes="csssc" />
    <path
       d="m 81.685985,888.21652 c 2.32421,7.7587 4.81932,15.4687 7.44628,23.125 1.02539,2.9833 1.94824,6.0107 3.02247,8.9746 1.16698,3.2226 2.43651,6.3819 3.75,9.5507 1.43066,3.4424 2.79296,6.9044 4.370105,10.2882 1.26952,2.7197 2.62207,5.4003 3.96972,8.0811 2.96387,5.8837 6.69923,11.372 10.28324,16.8945 2.749,4.2334 5.3515,8.5497 8.28125,12.666 1.48437,2.085 3.10537,4.1114 4.4775,6.2744 1.4795,2.3437 2.90038,4.7315 4.40425,7.0606 2.66112,4.1307 5.25887,8.3154 7.96875,12.41698 1.40137,2.124 3.17387,4.0282 4.78037,6.0057 2.73925,3.379 5.62988,6.6554 8.50088,9.9219 0.01,0.015 0.0294,-0.01 0.0245,-0.02 -2.46925,-5.8334 -5.0605,-11.6059 -7.63575,-17.3909 -1.03063,-2.56398 -1.87025,-5.20428 -2.8135,-7.79948 -1.07425,-2.9492 -2.26563,-5.8496 -3.418,-8.7646 -1.25487,-3.1787 -2.44138,-6.3916 -4.02825,-9.4239 -1.50888,-2.8857 -3.04688,-5.7568 -4.541,-8.6523 -2.99812,-5.8008 -6.18663,-11.4893 -9.69738,-16.9922 -1.64062,-2.5732 -3.4765,-5.0097 -5.122,-7.583 -1.77737,-2.7686 -3.584,-5.5225 -5.35646,-8.296 -2.0752,-3.2518 -3.92578,-6.6307 -5.92773,-9.9267 -2.42675,-3.9844 -4.741215,-8.0175 -7.060545,-12.0654 -1.81152,-3.169 -3.8037,-6.2451 -5.7666,-9.3214 -3.22265,-5.0585 -6.5332,-10.0585 -9.88282,-15.0341 -0.003,0 -0.009,-0.01 -0.0137,-0.01 -0.01,0 -0.0188,0.01 -0.0156,0.017"
       style="fill:#000000;fill-opacity:1;fill-rule:nonzero;stroke:none"
       id="viisari"
       inkscape:connector-curvature="0" />
  </g>
</svg>
