<?xml version="1.0" encoding="UTF-8" standalone="no"?>
<!-- Created with Inkscape (http://www.inkscape.org/) -->

<svg
   xmlns:dc="http://purl.org/dc/elements/1.1/"
   xmlns:cc="http://creativecommons.org/ns#"
   xmlns:rdf="http://www.w3.org/1999/02/22-rdf-syntax-ns#"
   xmlns:svg="http://www.w3.org/2000/svg"
   xmlns="http://www.w3.org/2000/svg"
   xmlns:sodipodi="http://sodipodi.sourceforge.net/DTD/sodipodi-0.dtd"
   xmlns:inkscape="http://www.inkscape.org/namespaces/inkscape"
   width="100%"
   height="100%"
   id="svg2"
   version="1.1"
   inkscape:version="0.48.5 r10040"
   sodipodi:docname="viisari4.svg"
   viewBox="0 0 180 180">
  <defs
     id="defs4" />
  <sodipodi:namedview
     fit-margin-top="0"
     fit-margin-left="0"
     fit-margin-right="0"
     fit-margin-bottom="0"
     inkscape:zoom="0.74"
     inkscape:cx="-63.790892"
     inkscape:cy="-298.60026"
     inkscape:window-width="1617"
     inkscape:window-height="991"
     inkscape:window-x="69"
     inkscape:window-y="18"
     inkscape:window-maximized="0"
     inkscape:current-layer="layer1" />
  <metadata
     id="metadata7">
    <rdf:RDF>
      <cc:Work
         rdf:about="">
        <dc:format>image/svg+xml</dc:format>
        <dc:type
           rdf:resource="http://purl.org/dc/dcmitype/StillImage" />
        <dc:title></dc:title>
      </cc:Work>
    </rdf:RDF>
  </metadata>
  <g
     inkscape:label="Layer 1"
     inkscape:groupmode="layer"
     id="layer1"
     transform="translate(-438.95416,-863.26373)">
    <g
       id="tankom"
       transform="translate(43.285031,-25.971017)">
      <rect
         y="1036.01"
         x="404.46381"
         height="14.428346"
         width="163.78867"
         id="tanko"
         style="fill:#81a4ad;fill-opacity:1;fill-rule:evenodd;stroke:none" />
      <g
         id="g4571"
         transform="matrix(0.66256843,0,0,0.66256843,134.34291,381.55824)">
        <path
           inkscape:connector-curvature="0"
           id="path3040-4"
           style="fill:#000000;fill-opacity:1;fill-rule:nonzero;stroke:none"
           d="m 399.27787,777.08127 c 7.55354,1.72143 15.13389,3.4129 22.79467,4.60591 6.68114,1.04123 13.37642,2.03468 20.02031,3.28261 6.32632,1.19101 12.69001,2.16435 19.02186,3.30304 3.02212,0.54877 6.11131,0.7189 9.16235,1.03468 4.07135,0.41155 8.14102,0.79467 12.21894,1.09934 4.2026,0.31044 8.40238,0.61092 12.60247,0.92852 2.89368,0.33532 5.7672,0.85455 8.66479,1.12905 4.01301,0.37532 7.99296,0.56212 12.01752,0.70631 3.4528,0.11895 6.90133,0.0258 10.35375,-0.043 3.07213,-0.0595 6.13174,0.27163 9.20841,0.20349 3.19048,-0.0745 6.36992,0.0606 9.55539,0.0165 3.22902,-0.043 6.4511,-0.27192 9.67729,-0.38282 3.1452,-0.10383 6.27582,-0.45254 9.40904,-0.71172 3.10908,-0.25523 6.21927,-0.56513 9.31592,-0.95391 2.77252,-0.34986 5.57439,-0.53521 8.33944,-0.94409 3.05001,-0.45744 6.09205,-0.84744 9.1586,-1.15814 6.09878,-0.62123 12.10279,-1.85567 18.11347,-3.0346 2.67268,-0.41672 5.33979,-0.71048 8.04079,-0.94868 3.23414,-0.28317 6.44562,-0.83767 9.65378,-1.33329 3.30677,-0.51546 6.58242,-1.31759 9.85815,-2.01498 4.35303,-0.93002 8.67498,-1.9373 12.92734,-3.27355 4.27876,-1.34451 8.49244,-2.91093 12.74671,-4.33446 0.0197,-0.006 0.0159,-0.0303 -0.006,-0.0307 -4.09794,0.13165 -8.19785,0.35072 -12.29981,0.45835 -4.52813,0.12037 -9.03384,-0.095 -13.55231,-0.32826 -3.28255,-0.17479 -6.56764,-0.33482 -9.85285,-0.48416 -6.43172,-0.60922 -12.85809,-1.44293 -19.31543,-1.62908 -3.26767,-0.0931 -6.5561,0.0732 -9.82957,0.0432 -3.09417,-0.0349 -6.17555,-0.26166 -9.26474,-0.43179 -3.42503,-0.19262 -6.84261,-0.11642 -10.27211,-0.20642 -3.02109,-0.0792 -6.03846,-0.13434 -9.06246,-0.18736 -3.38404,-0.0607 -6.76803,-0.13223 -10.1567,-0.0795 -3.0829,0.0483 -6.14814,-0.1147 -9.23141,-0.14934 -3.21858,-0.0398 -6.42791,-0.10764 -9.64057,-0.22145 -2.98132,-0.10244 -5.97235,0.044 -8.95285,-0.10207 -6.6395,-0.32392 -13.32936,0.18108 -19.96337,0.52775 -3.08743,0.1618 -6.17863,0.0899 -9.25987,-0.043 -3.45871,-0.14961 -6.88093,0.04 -10.33012,0.27065 -6.65798,0.44451 -13.30075,0.99635 -19.9626,1.4168 -2.68351,0.1704 -5.3591,0.37805 -8.04629,0.51333 -2.74628,0.14285 -5.51056,0.0996 -8.25936,0.15286 -2.79473,0.0567 -5.58925,0.31207 -8.38083,0.32072 -2.90295,0.0106 -5.80755,-0.007 -8.7039,0.10634 -5.78186,0.22714 -11.55448,0.63575 -17.3108,1.20199 -7.05615,0.68731 -14.13985,1.12276 -21.20862,1.67655 -0.005,-0.001 -0.009,10e-4 -0.0109,0.006 -0.004,0.008 -4.7e-4,0.0202 0.0122,0.0232" />
        <path
           inkscape:connector-curvature="0"
           id="path3040-1"
           style="fill:#000000;fill-opacity:1;fill-rule:nonzero;stroke:none"
           d="m 396.18575,1004.4461 c 7.58865,1.5594 15.20346,9.1254 22.88803,10.1542 6.70188,0.898 13.4169,1.748 20.08597,2.8534 6.35036,1.0554 12.73343,1.8923 19.08819,2.8952 3.03318,0.484 6.1253,0.588 9.1824,0.8384 4.07922,0.3243 8.15616,0.6202 12.23967,0.8376 4.20828,0.2204 8.41353,0.4309 12.61946,0.6586 2.90019,0.2733 5.78416,0.7309 8.68696,0.9433 4.02012,0.2894 8.00315,0.3909 12.02988,0.449 3.45456,0.045 6.9003,-0.1219 10.35047,-0.2646 3.07014,-0.1253 6.13614,0.1403 9.21064,0.01 3.18815,-0.1428 6.36976,-0.076 9.55357,-0.188 3.22735,-0.1121 6.44379,-0.4099 9.66688,-0.5899 3.14225,-0.1711 6.2647,-0.5867 9.39165,-0.9129 3.1029,-0.3217 6.20574,-0.6981 9.29336,-1.1531 2.76441,-0.4091 5.56166,-0.6543 8.31734,-1.1223 3.03951,-0.5226 6.07251,-0.9776 9.13171,-1.3539 6.08409,-0.7516 12.06031,-2.1142 18.04437,-3.4215 2.66315,-0.4739 5.32337,-0.8246 8.01865,-1.1206 3.22734,-0.3523 6.42622,-0.9754 9.62304,-1.5396 3.29497,-0.5861 6.55272,-1.4581 9.81277,-2.2255 4.33212,-1.0229 8.63153,-2.1225 12.85432,-3.5494 4.24901,-1.4358 8.42819,-3.092 12.65102,-4.6063 0.0196,-0.01 0.0153,-0.031 -0.007,-0.031 -4.09419,0.2193 -8.18847,0.5261 -12.28718,0.7215 -4.52452,0.2172 -9.03381,0.098 -13.55624,-0.038 -3.28553,-0.1045 -6.57329,-0.1942 -9.86095,-0.2732 -6.44329,-0.4715 -12.88603,-1.1674 -19.34588,-1.2153 -3.26891,-0.023 -6.55302,0.2135 -9.82639,0.2535 -3.0942,0.031 -6.17974,-0.1294 -9.27185,-0.2334 -3.42838,-0.1193 -6.84354,0.03 -10.27418,0.014 -3.0221,-0.014 -6.03996,0 -9.0644,0.01 -3.38456,0.012 -6.7693,0.013 -10.15607,0.1379 -3.08117,0.1143 -6.14919,0.017 -9.23249,0.048 -3.2187,0.029 -6.42875,0.03 -9.64312,-0.015 -2.98281,-0.039 -5.97003,0.1718 -8.95297,0.09 -6.64491,-0.1818 -13.32243,0.4663 -19.9475,0.9549 -3.08325,0.2278 -6.17529,0.2221 -9.25867,0.1552 -3.46112,-0.075 -6.87849,0.1872 -10.32196,0.4916 -6.64695,0.5869 -13.27638,-4.75636 -19.92771,-4.19346 -2.67925,0.2278 -5.34978,0.4927 -8.03346,0.6854 -2.7426,0.2016 -5.50716,0.2176 -8.25419,0.3296 -2.79288,0.11656 -5.58129,0.43166 -8.37205,0.49996 -2.90206,0.073 -5.80637,0.1173 -8.69963,0.2926 -5.77568,0.3509 -11.53823,0.8829 -17.28111,1.5722 -7.03983,0.8382 -14.11259,1.4251 -21.16788,2.1301 -0.005,-10e-4 -0.008,0 -0.0107,0.01 -0.004,0.01 -4e-5,0.02 0.0127,0.023"
           sodipodi:nodetypes="cccccccccccccccccccccscccccccccccccccccccccccccc" />
        <path
           inkscape:connector-curvature="0"
           id="path3040-7"
           style="fill:#000000;fill-opacity:1;fill-rule:nonzero;stroke:none"
           d="m 411.54715,766.2431 c -1.76624,7.54318 -3.50267,15.11336 -4.74113,22.76693 -1.08087,6.67484 -2.11403,13.36411 -3.40138,20.00048 -1.22853,6.31913 -2.23963,12.67694 -3.41588,19.00191 -0.5667,3.01881 -0.75516,6.10694 -1.08904,9.15606 -0.43571,4.06883 -0.84298,8.13615 -1.17184,12.21219 -0.33538,4.20068 -0.66079,8.39861 -1.00331,12.59675 -0.35249,2.89164 -0.88876,5.76203 -1.18046,8.65794 -0.39913,4.01072 -0.60955,7.98948 -0.77762,12.01312 -0.13945,3.45204 -0.0668,6.90109 -0.0184,10.35379 0.0413,3.0725 -0.30803,6.13 -0.25814,9.2071 0.0555,3.1908 -0.0984,6.3694 -0.0732,9.5551 0.0239,3.2292 0.23363,6.4526 0.32538,9.6794 0.0851,3.1457 0.41527,6.2784 0.65586,9.4131 0.23677,3.1105 0.5282,6.2225 0.8986,9.3214 0.3334,2.7745 0.50211,5.5775 0.89458,8.3449 0.43932,3.0527 0.81126,6.097 1.10376,9.1653 0.58501,6.1024 1.78379,12.1136 2.92703,18.1312 0.40085,2.6751 0.67877,5.3439 0.90094,8.0462 0.26397,3.2358 0.79939,6.4505 1.27597,9.6616 0.49582,3.3097 1.27849,6.59013 1.95643,9.86993 0.90416,4.3585 1.88577,8.6863 3.19675,12.9465 1.3191,4.2867 2.86048,8.5096 4.25874,12.7723 0.006,0.02 0.0302,0.016 0.0308,-0.01 -0.10733,-4.0987 -0.30205,-8.1998 -0.38534,-12.3024 -0.0935,-4.5287 0.14863,-9.0331 0.40869,-13.5501 0.19427,-3.28143 0.37379,-6.56553 0.54263,-9.84983 0.64739,-6.428 1.51923,-12.8493 1.7437,-19.3054 0.11246,-3.2671 -0.0343,-6.5564 0.0151,-9.8297 0.0532,-3.0939 0.2983,-6.1738 0.48677,-9.262 0.21295,-3.4238 0.15703,-6.8418 0.26738,-10.2707 0.0971,-3.0205 0.17019,-6.0375 0.24116,-9.0612 0.0808,-3.3836 0.17238,-6.7671 0.13978,-10.156 -0.03,-3.0831 0.15119,-6.1474 0.20413,-9.2304 0.0589,-3.2183 0.14579,-6.4271 0.27867,-9.6391 0.12013,-2.9806 -0.009,-5.9725 0.15521,-8.952 0.36332,-6.6375 -0.10197,-13.33023 -0.40926,-19.96618 -0.14347,-3.08833 -0.0532,-6.17906 0.0979,-9.25946 0.17014,-3.45777 8.4e-4,-6.88105 -0.20933,-10.33155 -0.40498,-6.66051 -0.9174,-13.30644 -1.29829,-19.97067 -0.15448,-2.68447 -0.34624,-5.36124 -0.46556,-8.04919 -0.12656,-2.74708 -0.0669,-5.51105 -0.10384,-8.26012 -0.0401,-2.79502 -0.27889,-5.591 -0.27097,-8.38259 0.007,-2.90296 0.0415,-5.8074 -0.0547,-8.70438 -0.19282,-5.78311 -0.56716,-11.55805 -1.09923,-17.31762 -0.64541,-7.06011 -1.03881,-14.14627 -1.55064,-21.2182 10e-4,-0.005 -0.001,-0.009 -0.006,-0.0109 -0.008,-0.004 -0.0202,-5.9e-4 -0.0233,0.012" />
        <path
           inkscape:connector-curvature="0"
           id="path3040-9"
           style="fill:#000000;fill-opacity:1;fill-rule:nonzero;stroke:none"
           d="m 659.86493,778.60869 c -1.76365,7.01833 -3.49748,14.06174 -4.73331,21.18259 -1.07858,6.21022 -2.10945,12.43388 -3.39452,18.60839 -1.22637,5.87935 -2.23528,11.79461 -3.40936,17.67939 -0.56566,2.80871 -0.75307,5.68178 -1.0859,8.51862 -0.43431,3.78555 -0.84018,7.56968 -1.16765,11.36191 -0.33393,3.90818 -0.6579,7.8138 -0.99898,11.71962 -0.3515,2.69033 -0.88679,5.36093 -1.17749,8.05522 -0.39775,3.73146 -0.6068,7.43314 -0.7735,11.17656 -0.13826,3.21164 -0.0644,6.4204 -0.0149,9.63259 0.0423,2.85839 -0.30592,5.70319 -0.25498,8.56586 0.0566,2.96854 -0.0962,5.92573 -0.07,8.88952 0.025,3.00427 0.23584,6.00304 0.3287,9.00507 0.0862,2.92658 0.41743,5.84088 0.65909,8.75723 0.23784,2.89374 0.53034,5.78888 0.9018,8.67182 0.33435,2.58115 0.50403,5.18881 0.89744,7.76335 0.44037,2.83987 0.81335,5.67193 1.10691,8.5265 0.58711,5.67705 1.78795,11.26925 2.93325,16.86722 0.40177,2.48866 0.68061,4.97147 0.90371,7.48554 0.26507,3.01031 0.8016,6.00093 1.27928,8.98816 0.49696,3.07907 1.28076,6.13069 1.95982,9.18184 0.90566,4.05451 1.88876,8.08061 3.2012,12.04371 1.32056,3.9876 2.8634,7.9159 4.26312,11.8812 0.006,0.019 0.0302,0.015 0.0308,-0.01 -0.10874,-3.8132 -0.30487,-7.6286 -0.38956,-11.4453 -0.095,-4.2133 0.14552,-8.404 0.40404,-12.60642 0.19314,-3.05292 0.37154,-6.10835 0.53925,-9.16388 0.64518,-5.98046 1.51481,-11.95475 1.73707,-17.96123 0.11133,-3.03953 -0.0366,-6.09971 0.0118,-9.145 0.0522,-2.87839 0.29618,-5.74385 0.48359,-8.61693 0.21177,-3.1854 0.15468,-6.36532 0.26385,-9.55537 0.0961,-2.8102 0.16812,-5.61704 0.23805,-8.43012 0.0796,-3.148 0.17007,-6.29582 0.1363,-9.44866 -0.0311,-2.86834 0.14908,-5.71919 0.20096,-8.58744 0.0578,-2.99412 0.14358,-5.9795 0.27536,-8.96777 0.11911,-2.77307 -0.0106,-5.55647 0.15213,-8.32852 0.36105,-6.17525 -0.10653,-12.40166 -0.4161,-18.57523 -0.14454,-2.8732 -0.0554,-5.74867 0.0948,-8.61455 0.16895,-3.21696 -0.002,-6.40172 -0.21288,-9.6118 -0.40727,-6.19644 -0.92196,-12.37928 -1.30515,-18.57917 -0.15539,-2.49743 -0.34808,-4.98769 -0.46832,-7.48836 -0.12749,-2.55569 -0.0688,-5.12715 -0.10667,-7.68472 -0.0411,-2.60031 -0.28081,-5.20146 -0.27385,-7.79859 0.006,-2.70076 0.0395,-5.4029 -0.0577,-8.09805 -0.19481,-5.38021 -0.57113,-10.75277 -1.10518,-16.11098 -0.64784,-6.56812 -1.04366,-13.16055 -1.55792,-19.73971 10e-4,-0.005 -10e-4,-0.008 -0.006,-0.0101 -0.008,-0.004 -0.0202,-5.4e-4 -0.0233,0.0112" />
      </g>
    </g>
  </g>
</svg>
